<svg width="32" height="32" viewBox="0 0 32 32" fill="none" xmlns="http://www.w3.org/2000/svg">
<rect width="32" height="32" rx="8" fill="#121212"/>
<path d="M22.3834 9.69666H9.61663C9.27607 9.69666 9 9.99324 9 10.3591V11.2987C9 11.6645 9.27607 11.9611 9.61663 11.9611H22.3834C22.7239 11.9611 23 11.6645 23 11.2987V10.3591C23 9.99324 22.7239 9.69666 22.3834 9.69666Z" fill="white"/>
<path d="M14.9555 8H17.0414C17.1451 8 17.2477 8.02194 17.3435 8.06458C17.4394 8.10721 17.5264 8.1697 17.5997 8.24847C17.6731 8.32725 17.7312 8.42076 17.7709 8.52369C17.8106 8.62661 17.831 8.73693 17.831 8.84833V9.6899H14.1658V8.84833C14.1658 8.62334 14.249 8.40756 14.3971 8.24847C14.5452 8.08938 14.7461 8 14.9555 8ZM10.4912 12.921V23.1145C10.4912 23.3493 10.5781 23.5746 10.7327 23.7406C10.8872 23.9067 11.0969 24 11.3155 24H20.6876C20.9057 23.9991 21.1146 23.9054 21.2685 23.7394C21.4224 23.5735 21.5088 23.3488 21.5088 23.1145V12.921H10.4912ZM13.7254 20.6641C13.7307 20.7326 13.7227 20.8015 13.7019 20.8665C13.6811 20.9314 13.648 20.9911 13.6047 21.0416C13.5614 21.0921 13.5088 21.1325 13.4503 21.1601C13.3917 21.1877 13.3284 21.2019 13.2645 21.2019C13.2006 21.2019 13.1373 21.1877 13.0787 21.1601C13.0202 21.1325 12.9676 21.0921 12.9243 21.0416C12.881 20.9911 12.8479 20.9314 12.8271 20.8665C12.8063 20.8015 12.7983 20.7326 12.8036 20.6641V16.2535C12.7983 16.185 12.8063 16.1161 12.8271 16.0512C12.8479 15.9862 12.881 15.9266 12.9243 15.876C12.9676 15.8255 13.0202 15.7851 13.0787 15.7575C13.1373 15.73 13.2006 15.7157 13.2645 15.7157C13.3284 15.7157 13.3917 15.73 13.4503 15.7575C13.5088 15.7851 13.5614 15.8255 13.6047 15.876C13.648 15.9266 13.6811 15.9862 13.7019 16.0512C13.7227 16.1161 13.7307 16.185 13.7254 16.2535V20.6641ZM16.4625 21.6781C16.4677 21.7465 16.4597 21.8154 16.439 21.8804C16.4182 21.9454 16.3851 22.005 16.3418 22.0555C16.2985 22.1061 16.2459 22.1464 16.1873 22.174C16.1288 22.2016 16.0655 22.2158 16.0016 22.2158C15.9376 22.2158 15.8744 22.2016 15.8158 22.174C15.7573 22.1464 15.7047 22.1061 15.6614 22.0555C15.618 22.005 15.585 21.9454 15.5642 21.8804C15.5434 21.8154 15.5354 21.7465 15.5407 21.6781V15.2395C15.5354 15.1711 15.5434 15.1022 15.5642 15.0372C15.585 14.9722 15.618 14.9126 15.6614 14.8621C15.7047 14.8115 15.7573 14.7712 15.8158 14.7436C15.8744 14.716 15.9376 14.7018 16.0016 14.7018C16.0655 14.7018 16.1288 14.716 16.1873 14.7436C16.2459 14.7712 16.2985 14.8115 16.3418 14.8621C16.3851 14.9126 16.4182 14.9722 16.439 15.0372C16.4597 15.1022 16.4677 15.1711 16.4625 15.2395V21.6781ZM19.1901 20.6641C19.1954 20.7326 19.1874 20.8015 19.1666 20.8665C19.1458 20.9314 19.1128 20.9911 19.0694 21.0416C19.0261 21.0921 18.9735 21.1325 18.915 21.1601C18.8564 21.1877 18.7932 21.2019 18.7292 21.2019C18.6653 21.2019 18.602 21.1877 18.5435 21.1601C18.4849 21.1325 18.4323 21.0921 18.389 21.0416C18.3457 20.9911 18.3126 20.9314 18.2918 20.8665C18.2711 20.8015 18.2631 20.7326 18.2683 20.6641V16.2535C18.2631 16.185 18.2711 16.1161 18.2918 16.0512C18.3126 15.9862 18.3457 15.9266 18.389 15.876C18.4323 15.8255 18.4849 15.7851 18.5435 15.7575C18.602 15.73 18.6653 15.7157 18.7292 15.7157C18.7932 15.7157 18.8564 15.73 18.915 15.7575C18.9735 15.7851 19.0261 15.8255 19.0694 15.876C19.1128 15.9266 19.1458 15.9862 19.1666 16.0512C19.1874 16.1161 19.1954 16.185 19.1901 16.2535V20.6641Z" fill="white"/>
</svg>
